<?xml version="1.0" ?><svg height="105px" version="1.1" viewBox="0 0 105 105" width="105px" xmlns="http://www.w3.org/2000/svg" xmlns:sketch="http://www.bohemiancoding.com/sketch/ns" xmlns:xlink="http://www.w3.org/1999/xlink"><title/><defs/><g fill="none" fill-rule="evenodd" id="Imoticon" stroke="none" stroke-width="1"><path d="M52,94 C75.1959606,94 94,75.1959606 94,52 C94,28.8040394 75.1959606,10 52,10 C28.8040394,10 10,28.8040394 10,52 C10,75.1959606 28.8040394,94 52,94 Z M41.7556635,80.6540485 L42.0340576,69.9744873 L42.9709473,86.2036133 C42.9709473,86.2036133 42.9035645,93.0275885 51.0219727,93.0275879 C59.1403809,93.0275879 59.1403809,86.2036133 59.1403809,86.2036133 L60.175293,69.9744873 L60.4674072,80.7858887 C73.5875013,77.111228 77,66.1799437 77,66.1799437 C77,65.2307403 66.1048641,68.3459317 51.5,68.3459317 C36.8951359,68.3459317 26,65.2307403 26,66.1799437 C26,66.1799437 29.0999651,76.830763 41.7556635,80.6540485 Z M35.5,51.6538086 C41.8886719,51.6538091 45.9841309,53.5 45.9841309,51.3674316 C45.9841306,49.2348633 41.2989902,47 35.5,47 C29.7010098,47 25,52.1192881 25,53.5 C25,54.8807119 29.1113281,51.6538083 35.5,51.6538086 Z M70.5,60 C77.9558445,60 84,53.9558445 84,46.5 C84,39.0441555 77.9558445,33 70.5,33 C63.0441555,33 57,39.0441555 57,46.5 C57,53.9558445 63.0441555,60 70.5,60 Z M70.5,51 C72.9852815,51 75,48.9852815 75,46.5 C75,44.0147185 72.9852815,42 70.5,42 C68.0147185,42 66,44.0147185 66,46.5 C66,48.9852815 68.0147185,51 70.5,51 Z M50,69 L52,69 L51.0322266,85.2121582 L50,69 Z M50,69" fill="#000000" id="imoticon_12"/></g></svg>