<svg width="105" height="105" xmlns="http://www.w3.org/2000/svg">
 <title/>
 <g>
  <title>Layer 1</title>
  <g id="Imoticon" fill-rule="evenodd" fill="#FFDBDB">
   <path id="imoticon_12" fill="#ffdbdb" d="m52,94c23.195961,0 42,-18.804039 42,-42c0,-23.195961 -18.804039,-42 -42,-42c-23.195961,0 -42,18.804039 -42,42c0,23.195961 18.804039,42 42,42zm-10.244335,-13.345955l0.278393,-10.679558l0.93689,16.229126c0,0 -0.067383,6.823975 8.051025,6.823975c8.118408,0 8.118408,-6.823975 8.118408,-6.823975l1.034912,-16.229126l0.292114,10.811401c13.120094,-3.67466 16.532593,-14.605942 16.532593,-14.605942c0,-0.949203 -10.895134,2.165985 -25.5,2.165985c-14.604862,0 -25.5,-3.115189 -25.5,-2.165985c0,0 3.099966,10.650818 15.755665,14.474098zm-6.255665,-29.000237c6.388672,0 10.484131,1.846191 10.484131,-0.286377c0,-2.132568 -4.685143,-4.367432 -10.484131,-4.367432c-5.79899,0 -10.5,5.119289 -10.5,6.5c0,1.380711 4.111328,-1.846191 10.5,-1.846191zm35,8.346191c7.455841,0 13.5,-6.044155 13.5,-13.5c0,-7.455845 -6.044159,-13.5 -13.5,-13.5c-7.455845,0 -13.5,6.044155 -13.5,13.5c0,7.455845 6.044155,13.5 13.5,13.5zm0,-9c2.485283,0 4.5,-2.014717 4.5,-4.5c0,-2.485283 -2.014717,-4.5 -4.5,-4.5c-2.485283,0 -4.5,2.014717 -4.5,4.5c0,2.485283 2.014717,4.5 4.5,4.5zm-20.5,18l2,0l-0.967773,16.212158l-1.032227,-16.212158zm0,0"/>
  </g>
 </g>
</svg>
