<svg width="1479" height="2048" xmlns="http://www.w3.org/2000/svg" preserveAspectRatio="xMidYMid meet">
 <g>
  <title>Layer 1</title>
  <path fill="#ffdbdb" id="svg_34" d="m1527,1576c37.333008,59.333008 44.5,110.166992 21.5,152.5s-69.833008,63.5 -140.5,63.5h-1152c-70.667007,0 -117.5,-21.166992 -140.5,-63.5s-15.833,-93.166992 21.5,-152.5l503,-793v-399h-64c-17.333008,0 -32.333008,-6.333008 -45,-19s-19,-27.666992 -19,-45s6.333008,-32.333008 19,-45s27.666992,-19 45,-19h512c17.333008,0 32.333008,6.333008 45,19s19,27.666992 19,45s-6.333008,32.333008 -19,45s-27.666992,19 -45,19h-64v399l503,793zm-779,-725l-272,429h712l-272,-429l-20,-31v-37v-399h-128v399v37l-20,31z"/>
 </g>
</svg>
