<svg width="105" height="105" xmlns="http://www.w3.org/2000/svg">
 <title/>
 <g>
  <title>Layer 1</title>
  <g fill="#FFDBDB" fill-rule="evenodd" id="Imoticon">
   <path d="m52,94c23.195961,0 42,-18.804039 42,-42c0,-23.195959 -18.804039,-42 -42,-42c-23.195959,0 -42,18.804041 -42,42c0,23.195961 18.804041,42 42,42zm-11.5,-47.132568c4.72192,0 5.5,6.132568 6.5,5.132568c0,-7 -1.942139,-13 -6.5,-13c-4.557861,0 -6.5,6 -6.5,13c1,1 1.77808,-5.132568 6.5,-5.132568zm23,0c4.721916,0 5.5,6.132568 6.5,5.132568c0,-7 -1.942139,-13 -6.5,-13c-4.557861,0 -6.5,6 -6.5,13c1,1 1.77808,-5.132568 6.5,-5.132568zm-11.5,27.428711c14.143799,0 18.936768,-9.296143 19,-12.296143c0,-0.756279 -8.400391,7.513924 -19,7.513924c-10.599609,0 -20,-8.270203 -20,-7.513924c0,3 5.856201,12.296143 20,12.296143zm0,0" fill="#FFDBDB" id="imoticon_4"/>
  </g>
 </g>
</svg>
