<svg width="32.268" height="11.012" xmlns="http://www.w3.org/2000/svg">
 <g>
  <title>Layer 1</title>
  <path d="m32.085999,0.515c0.418999,1.046 0.040001,1.83 -0.402,2.751c-0.202,0.419 -0.537994,0.748 -0.671,1.142c-0.152,0.449 -0.18,0.993 -0.268999,1.477c-0.254,1.369 -0.514,2.865 -1.409002,3.689c-0.743,0.683 -2.582998,1.233996 -3.893,1.342c-4.701,0.38 -6.646999,-1.959002 -7.781,-5.166c-0.341999,-0.967 -0.467999,-1.982 -1.743999,-1.879c-1.022,0.083 -1.068,0.916 -1.477,2.146c-0.88,2.658998 -2.523,4.704 -5.903,4.964c-1.987,0.153 -4.418,-0.252 -5.435,-1.207c-0.942998,-0.888 -1.280998,-2.681 -1.608998,-4.294c-0.12,-0.588 -0.257,-0.84 -0.537,-1.273c-0.131,-0.206 -0.231,-0.378 -0.335,-0.605c-0.371,-0.819 -0.877,-1.665 -0.47,-2.819c4.344,-0.698 8.222,-0.687 12.143,0.067c1.251,0.24 2.521,0.641 3.758,0.671c1.443001,0.035 3.188,-0.521 4.561998,-0.805c3.594002,-0.74 7.531002,-1.062 11.472,-0.201z" id="svg_1" fill="#FFDBDB"/>
 </g>
</svg>
