<svg width="500" height="500" xmlns="http://www.w3.org/2000/svg">
 <g>
  <title>Layer 1</title>
  <g id="svg_1">
   <path d="m256,224c-17.699997,0 -32,14.300003 -32,32s14.300003,32 32,32c17.700012,0 32,-14.299988 32,-32s-14.299988,-32 -32,-32l0,0z" id="svg_2" fill="#FF0000"/>
   <path d="m128.399994,224c-17.700005,0 -32,14.300003 -32,32s14.300003,32 32,32c17.699997,0 32,-14.299988 32,-32s-14.399994,-32 -32,-32l0,0z" id="svg_3" fill="#FFFF99"/>
   <path d="m384,224c-17.700012,0 -32,14.300003 -32,32s14.299988,32 32,32s32,-14.299988 32,-32s-14.299988,-32 -32,-32l0,0z" id="svg_4" fill="#009933"/>
  </g>
 </g>
</svg>
